<svg xmlns="http://www.w3.org/2000/svg" viewBox="0 0 512 512"><defs>
<filter id="glow"><feGaussianBlur stdDeviation="5" result="b"/><feMerge><feMergeNode in="b"/><feMergeNode in="SourceGraphic"/></feMerge></filter>
<filter id="soft"><feGaussianBlur stdDeviation="2"/></filter>
<linearGradient id="purple" x1="0" y1="0" x2="1" y2="1"><stop stop-color="#d9b8ff"/><stop offset=".45" stop-color="#7d4cff"/><stop offset="1" stop-color="#2b174f"/></linearGradient>
<linearGradient id="gold" x1="0" y1="0" x2="1" y2="1"><stop stop-color="#fff4b2"/><stop offset=".45" stop-color="#f1b52d"/><stop offset="1" stop-color="#8a4b00"/></linearGradient>
<linearGradient id="ice" x1="0" y1="0" x2="1" y2="1"><stop stop-color="#ffffff"/><stop offset=".45" stop-color="#76dbff"/><stop offset="1" stop-color="#2353b2"/></linearGradient>
<linearGradient id="fire" x1="0" y1="0" x2="1" y2="1"><stop stop-color="#fff17a"/><stop offset=".4" stop-color="#ff6a2b"/><stop offset="1" stop-color="#76132c"/></linearGradient>
<linearGradient id="wood" x1="0" y1="0" x2="1" y2="1"><stop stop-color="#9b6a3d"/><stop offset=".5" stop-color="#4f2e18"/><stop offset="1" stop-color="#24140c"/></linearGradient>
<radialGradient id="aura"><stop stop-color="#ffffff" stop-opacity=".55"/><stop offset="1" stop-color="#ffffff" stop-opacity="0"/></radialGradient>
</defs><g filter="url(#glow)"><circle cx="256" cy="256" r="176" fill="none" stroke="#54d66c" stroke-width="24"/><g fill="#94ff9d" stroke="#193d20" stroke-width="6"><path d="M105 355c-46-4-61 48-21 71 24 14 51-3 49-26 22-7 20-43-5-51z"/><path d="M407 156c46 4 61-48 21-71-24-14-51 3-49 26-22 7-20 43 5 51z"/></g><circle cx="95" cy="386" r="7" fill="#08110a"/><circle cx="118" cy="386" r="7" fill="#08110a"/><circle cx="394" cy="125" r="7" fill="#08110a"/><circle cx="417" cy="125" r="7" fill="#08110a"/><path d="M153 80c67-49 139-48 207 0l-27 45c-50-30-104-30-154 0z" fill="#1c4c28"/></g></svg>