<svg xmlns="http://www.w3.org/2000/svg" viewBox="0 0 800 800">
<defs>
 <linearGradient id="bg" x1="0" y1="0" x2="1" y2="1"><stop stop-color="#10251f"/><stop offset="1" stop-color="#0b1010"/></linearGradient>
 <radialGradient id="glow"><stop stop-color="#58d0a0" stop-opacity=".42"/><stop offset="1" stop-color="#58d0a0" stop-opacity="0"/></radialGradient>
 <filter id="soft"><feGaussianBlur stdDeviation="22"/></filter>
 <filter id="shadow"><feDropShadow dx="0" dy="18" stdDeviation="20" flood-opacity=".45"/></filter>
</defs>
<rect width="800" height="800" rx="96" fill="url(#bg)"/>
<circle cx="620" cy="120" r="260" fill="url(#glow)" filter="url(#soft)"/>
<path d="M0 610 C160 520 290 690 470 585 S690 520 800 610 V800 H0Z" fill="#ffffff" opacity=".025"/>
<g opacity=".08" stroke="#fff"><path d="M0 160H800M0 320H800M0 480H800M160 0V800M320 0V800M480 0V800M640 0V800"/></g>
<g filter="url(#shadow)">
<rect x="205" y="235" width="390" height="280" rx="42" fill="#10261f" stroke="#55d4a0" stroke-width="9"/>
<rect x="250" y="185" width="300" height="95" rx="32" fill="#18382f" stroke="#7ce1b7" stroke-width="8"/>
<path d="M400 205V495" stroke="#9ef1cb" stroke-width="18" opacity=".55"/>
<rect x="356" y="322" width="88" height="82" rx="22" fill="#e4c368"/>
<circle cx="400" cy="362" r="13" fill="#5d4b18"/>
<path d="M400 362v30" stroke="#5d4b18" stroke-width="10" stroke-linecap="round"/>
</g>
<text x="70" y="720" fill="#fff" opacity=".56" font-family="Arial, sans-serif" font-size="20" font-weight="700" letter-spacing="4">DAILY VAULT</text>
</svg>