<svg xmlns="http://www.w3.org/2000/svg" viewBox="0 0 800 800">
<defs>
 <linearGradient id="bg" x1="0" y1="0" x2="1" y2="1"><stop stop-color="#22152f"/><stop offset="1" stop-color="#0b0d13"/></linearGradient>
 <radialGradient id="glow"><stop stop-color="#9f66f2" stop-opacity=".42"/><stop offset="1" stop-color="#9f66f2" stop-opacity="0"/></radialGradient>
 <filter id="soft"><feGaussianBlur stdDeviation="22"/></filter>
 <filter id="shadow"><feDropShadow dx="0" dy="18" stdDeviation="20" flood-opacity=".45"/></filter>
</defs>
<rect width="800" height="800" rx="96" fill="url(#bg)"/>
<circle cx="620" cy="120" r="260" fill="url(#glow)" filter="url(#soft)"/>
<path d="M0 610 C160 520 290 690 470 585 S690 520 800 610 V800 H0Z" fill="#ffffff" opacity=".025"/>
<g opacity=".08" stroke="#fff"><path d="M0 160H800M0 320H800M0 480H800M160 0V800M320 0V800M480 0V800M640 0V800"/></g>
<g filter="url(#shadow)"><circle cx="400" cy="340" r="220" fill="#0b0e14" stroke="#e2bd63" stroke-width="16"/>
<path d="M400 340 L400.0 160.0 A180 180 0 0 1 490.0 184.1Z" fill="#7C4DFF"/><path d="M400 340 L490.0 184.1 A180 180 0 0 1 555.9 250.0Z" fill="#E44F81"/><path d="M400 340 L555.9 250.0 A180 180 0 0 1 580.0 340.0Z" fill="#3B88E5"/><path d="M400 340 L580.0 340.0 A180 180 0 0 1 555.9 430.0Z" fill="#D9A33A"/><path d="M400 340 L555.9 430.0 A180 180 0 0 1 490.0 495.9Z" fill="#3CB98A"/><path d="M400 340 L490.0 495.9 A180 180 0 0 1 400.0 520.0Z" fill="#7C4DFF"/><path d="M400 340 L400.0 520.0 A180 180 0 0 1 310.0 495.9Z" fill="#7C4DFF"/><path d="M400 340 L310.0 495.9 A180 180 0 0 1 244.1 430.0Z" fill="#E44F81"/><path d="M400 340 L244.1 430.0 A180 180 0 0 1 220.0 340.0Z" fill="#3B88E5"/><path d="M400 340 L220.0 340.0 A180 180 0 0 1 244.1 250.0Z" fill="#D9A33A"/><path d="M400 340 L244.1 250.0 A180 180 0 0 1 310.0 184.1Z" fill="#3CB98A"/><path d="M400 340 L310.0 184.1 A180 180 0 0 1 400.0 160.0Z" fill="#7C4DFF"/>
<circle cx="400" cy="340" r="70" fill="#10131a" stroke="#e2bd63" stroke-width="10"/>
<circle cx="400" cy="340" r="22" fill="#e2bd63"/>
<path d="M400 80 l-24 52 h48Z" fill="#f7d879"/>
</g>
<text x="70" y="720" fill="#fff" opacity=".56" font-family="Arial, sans-serif" font-size="20" font-weight="700" letter-spacing="4">NEON ROULETTE</text>
</svg>